<svg width="1440" height="1348" viewBox="0 0 1440 1348" fill="none" xmlns="http://www.w3.org/2000/svg">
<rect x="0.5" width="1440" height="1348" fill="white"/>
<mask id="mask0_2_4837" style="mask-type:alpha" maskUnits="userSpaceOnUse" x="0" y="0" width="1441" height="1348">
<rect x="0.5" width="1440" height="1348" fill="white"/>
</mask>
<g mask="url(#mask0_2_4837)">
<path opacity="0.3" d="M646.367 598.6C662.407 629.409 694.357 651.603 729.271 653.942C760.176 655.984 794.131 642.315 808.308 613.397C820.867 587.768 816.856 551.685 792.054 534.671C770.173 519.657 735.459 524.308 720.111 546.521C704.549 569.027 716.193 598.343 735.557 614.179C759.055 633.465 790.836 631.793 817.459 620.218C852.842 604.883 877.711 574.739 904.577 548.315C929.642 523.656 960.81 499.441 997.659 498.77C1035.78 498.048 1066.8 526.254 1080.2 560.222C1086.98 577.437 1089.91 596.021 1090.16 614.468C1090.41 633.176 1087.84 652.21 1080.65 669.598C1067.46 701.484 1034.49 729.131 998.149 721.35C982.383 717.969 967.581 708.248 959.967 693.805C952.513 679.657 953.576 662.75 960.387 648.586C967.242 634.215 979.435 623.086 994.371 617.568C1009.94 611.915 1027.13 612.201 1042.96 616.664C1081.94 627.673 1107.24 662.592 1123.8 697.516C1139.69 731.029 1151.14 768.319 1179.1 794.28C1190.46 804.825 1204.17 813.313 1219.43 816.639C1235.11 820.029 1251.03 817.219 1265.44 810.397C1301.47 793.41 1322.22 757.065 1354.55 735.065C1381.12 716.992 1413.63 708.277 1445.67 709.521C1461.72 710.109 1477.56 713.308 1492.59 718.992C1510.61 725.884 1526.31 737.654 1544.46 744.204C1558.69 749.331 1575.96 750.79 1589.37 742.6C1605.18 732.946 1610.03 713.689 1615.49 697.264C1620.67 681.65 1629.75 663.14 1647.81 660.271C1649.24 660.041 1648.61 657.874 1647.2 658.111C1631.14 660.669 1621.5 675.54 1615.88 689.584C1608.93 706.94 1606.1 729.005 1589.17 740.072C1573.73 750.186 1553.77 746.199 1537.97 739.204C1521.29 731.752 1506.23 721.3 1488.86 715.302C1459.59 705.169 1427.19 704.66 1397.39 712.91C1382.45 717.021 1368.23 723.429 1355.25 731.906C1338.83 742.687 1325.39 757.074 1311.76 771.067C1286.96 796.422 1254.83 823.935 1216.64 813.625C1181.38 804.071 1159.79 771.237 1145.23 740.119C1128.52 704.329 1115.52 666.161 1085.62 638.698C1061.95 616.962 1027.58 604.273 995.891 614.67C969.375 623.415 948.941 650.865 952.997 679.415C957.292 709.517 989.214 728.069 1017.96 724.434C1051.68 720.161 1076.45 691.949 1086.2 660.845C1096.47 628.014 1094.64 588.993 1081.41 557.265C1068.54 526.415 1041.21 500.258 1006.84 496.891C974.636 493.733 943.989 510.583 920.233 530.807C889.641 556.872 865.616 590.806 830.405 611.159C803.477 626.735 767.921 634.576 740.725 615.32C718.477 599.562 704.467 565.917 725.592 543.278C735.742 532.408 751.237 527.533 765.848 528.353C781.579 529.07 795.952 537.477 804.288 550.837C812.772 564.451 814.859 581.508 811.559 597.061C808.035 613.432 798.35 627.822 784.51 637.25C754.931 657.717 714.929 655.621 685.023 637.098C669.456 627.415 656.776 613.729 648.306 597.47C647.633 596.167 645.701 597.318 646.367 598.6Z" fill="#9A97ED"/>
<path opacity="0.3" d="M-177.996 1365.41C-171.466 1395.68 -146.876 1419.84 -117.676 1428.85C-87.4255 1438.18 -55.6755 1428.75 -34.4755 1405.46C-14.0255 1382.97 -4.37552 1349.46 -15.5555 1320.36C-26.0155 1293.14 -55.8455 1269.49 -85.6655 1282.63C-110.846 1293.73 -125.566 1326.63 -114.576 1352.33C-103.586 1378.03 -72.8255 1390.52 -46.2655 1385.82C-12.7555 1379.88 5.7345 1347.32 15.1045 1317.55C26.5245 1281.49 28.2045 1239.48 54.4845 1209.94C75.2045 1186.65 107.484 1175.23 138.314 1177.55C153.764 1178.61 168.705 1183.51 181.784 1191.8C195.974 1200.97 208.124 1216.62 209.784 1233.88C211.634 1253.08 196.904 1266.88 178.414 1268.27C158.085 1269.78 140.314 1257.46 124.884 1245.75C95.4245 1223.38 66.0945 1194.75 57.0145 1157.59C49.0145 1124.68 58.0745 1085.1 89.4045 1067.65C124.924 1047.87 167.314 1061.95 198.654 1082.92C215.654 1094.3 231.164 1107.83 246.654 1121.15C262.404 1134.69 278.075 1148.35 294.465 1161.15C325.544 1185.37 359.654 1206.5 398.394 1215.61C434.734 1224.16 473.815 1221.61 506.005 1201.44C536.005 1182.7 557.174 1152.44 570.745 1120.26C587.745 1080.06 594.424 1036.36 602.565 993.758L628.685 857.118L641.204 791.598C641.474 790.188 639.315 789.598 639.034 790.998L613.224 925.998C604.834 969.918 597.405 1014.15 587.565 1057.77C578.794 1096.6 566.025 1135.55 540.755 1166.98C529.565 1180.9 516.135 1193.14 500.575 1202.03C483.578 1211.57 464.578 1216.99 445.104 1217.86C360.394 1222.21 295.484 1159.47 235.594 1108.74C207.054 1084.58 175.274 1059.74 136.594 1056.42C119.874 1054.97 102.395 1057.62 87.6845 1066.01C74.4109 1073.74 64.1041 1085.68 58.4045 1099.95C45.7545 1130.73 52.6245 1165.4 70.0545 1192.78C79.8245 1208.08 92.4045 1221.41 106.004 1233.31C119.904 1245.46 135.174 1258.17 152.224 1265.55C166.744 1271.83 184.634 1273.26 198.294 1264C210.495 1255.72 214.354 1241.06 210.865 1227.19C203.264 1196.98 172.674 1179.53 143.615 1175.84C114.794 1172.19 84.2445 1180.62 62.0045 1199.46C33.7145 1223.46 26.9245 1260.92 18.7845 1295.17C11.0845 1327.61 -1.9055 1367.44 -36.0955 1380.67C-63.4055 1391.24 -99.5955 1379.9 -112.096 1352.4C-124.746 1324.62 -105.096 1286.76 -74.8055 1281.68C-38.5055 1275.58 -12.7055 1315.24 -13.0755 1347.29C-13.4455 1379.34 -34.0755 1410.68 -63.2955 1423.89C-93.7155 1437.62 -129.716 1427.98 -153.056 1405.25C-164.453 1394.31 -172.365 1380.26 -175.796 1364.84C-176.106 1363.41 -178.266 1364.03 -177.996 1365.41Z" fill="#9A97ED"/>
</g>
</svg>
