<svg width="12" height="12" viewBox="0 0 12 12" fill="none" xmlns="http://www.w3.org/2000/svg">
<ellipse cx="8.56204" cy="2.76763" rx="0.676782" ry="0.682667" fill="#ADADAD"/>
<path fill-rule="evenodd" clip-rule="evenodd" d="M5.63987 8.53313C4.08468 8.53313 2.81995 7.25739 2.81995 5.68868C2.81995 4.11997 4.08468 2.84424 5.63987 2.84424C7.19506 2.84424 8.45979 4.11997 8.45979 5.68868C8.45979 7.25739 7.19506 8.53313 5.63987 8.53313ZM5.63987 4.26646C4.86228 4.26646 4.22991 4.90433 4.22991 5.68868C4.22991 6.47304 4.86228 7.11091 5.63987 7.11091C6.41746 7.11091 7.04983 6.47304 7.04983 5.68868C7.04983 4.90433 6.41746 4.26646 5.63987 4.26646Z" fill="#ADADAD"/>
<path fill-rule="evenodd" clip-rule="evenodd" d="M8.45977 11.3778H2.81992C1.37048 11.3778 0 9.99538 0 8.53333V2.84444C0 1.3824 1.37048 0 2.81992 0H8.45977C9.90921 0 11.2797 1.3824 11.2797 2.84444V8.53333C11.2797 9.99538 9.90921 11.3778 8.45977 11.3778ZM2.81992 1.42222C2.16077 1.42222 1.40996 2.17956 1.40996 2.84444V8.53333C1.40996 9.21102 2.14808 9.95556 2.81992 9.95556H8.45977C9.11893 9.95556 9.86973 9.19822 9.86973 8.53333V2.84444C9.86973 2.17956 9.11893 1.42222 8.45977 1.42222H2.81992Z" fill="#ADADAD"/>
</svg>
