<svg width="16" height="16" viewBox="0 0 16 16" fill="none" xmlns="http://www.w3.org/2000/svg">
<path fill-rule="evenodd" clip-rule="evenodd" d="M15.9999 8.04806C16.0009 3.79207 12.6694 0.280407 8.4193 0.0573143C4.16916 -0.165779 0.488381 2.97781 0.0437293 7.2105C-0.400922 11.4432 2.54624 15.2831 6.74995 15.9481V10.3601H4.71895V8.04806H6.74995V6.28506C6.66141 5.45187 6.9477 4.62243 7.53131 4.02124C8.11492 3.42005 8.9355 3.10928 9.77095 3.17306C10.371 3.18094 10.9696 3.23308 11.5619 3.32906V5.30006H10.5539C10.2061 5.25457 9.8565 5.36962 9.60365 5.61274C9.3508 5.85587 9.22214 6.20073 9.25395 6.55006V8.05006H11.4729L11.1179 10.3621H9.24995V15.9531C13.1385 15.3379 16.0016 11.985 15.9999 8.04806Z" fill="#ADADAD"/>
</svg>
